# xmcd
#
# Track frame offsets: 
#        150
#        27381
#        48650
#        76885
#        97944
#        122776
#        149215
#        179898
#        210574
#        230891
#        260430
#        286890
#
# Disc length: 4040 seconds
#
# Revision: 1
# Processed by: cddbd v1.5.1PL0 Copyright (c) Steve Scherf et al.
# Submitted via: ExactAudioCopy v0.95a5
#
DISCID=ba0fc60c
DTITLE=Various Artist - Synthesizer Dance Volume 5
DYEAR=2003
DGENRE=Space
TTITLE0=Macrocosm - First Mission (Remix)
TTITLE1=Johan Koskela - Subsonic
TTITLE2=Lone Star - Final Elevation
TTITLE3=Gustaf Grefberg - The Hunter
TTITLE4=Stefan Bieri - Contact
TTITLE5=Marco Rochowski - Star Crusader
TTITLE6=MindXpander - Ange de L'espace
TTITLE7=Protonic Storm - Soul Howling
TTITLE8=Humphrey Robertson - Warriors
TTITLE9=Johan Koskela - Fysical
TTITLE10=Stefan Bieri - Digital Dance
TTITLE11=Gustaf Grefberg - The Resurrection
EXTD=Hypersoubd - HYPS 71018\n
EXTT0=
EXTT1=
EXTT2=
EXTT3=
EXTT4=
EXTT5=
EXTT6=
EXTT7=
EXTT8=
EXTT9=
EXTT10=
EXTT11=
PLAYORDER=
